# xmcd
#
# Track frame offsets:
#	150
#	12097
#	26020
#	42937
#	55087
#	64765
#	78075
#	99292
#	113932
#	131300
#	149427
#	166995
#	189812
#	202260
#	222262
#
# Disc length: 3129 seconds
#
# Revision: 1
# Processed by: cddbd v1.5.2PL0 Copyright (c) Steve Scherf et al.
# Submitted via: audiograbber 1.83.01
#
DISCID=c60c370f
DTITLE=Διάφοροι - Τα μεγαλύτερα δισκογραφικά ντουέτα
DYEAR=1900
DGENRE=
TTITLE0=Τα Κύθηρα ποτέ δεν θα τα βρούμε
TTITLE1=Πάρε ένα κοχύλι από το Αιγαίο
TTITLE2=Μίλα μου
TTITLE3=Μάθαμε τον έρωτα
TTITLE4=Το Δεσποινάκι
TTITLE5=Θέλω κοντά σου να μείνω
TTITLE6=Η αγάπη θέλει δύο
TTITLE7=Θα κλάψεις μιά μέρα
TTITLE8=Ολα γιά μένα είσαι εσύ
TTITLE9=Ωρα μηδέν
TTITLE10=Η Ελλη
TTITLE11=Κανένας δεν μας σταματά
TTITLE12=Μόνο εσύ μόνο εσύ
TTITLE13=Αν ο έρωτας ζεί
TTITLE14=Το πρώτο χελιδόνι
EXTD=
EXTT0=
EXTT1=
EXTT2=
EXTT3=
EXTT4=
EXTT5=
EXTT6=
EXTT7=
EXTT8=
EXTT9=
EXTT10=
EXTT11=
EXTT12=
EXTT13=
EXTT14=
PLAYORDER=
